<?xml version="1.0" encoding="iso-8859-1"?>
<!-- Generator: Adobe Illustrator 21.0.0, SVG Export Plug-In . SVG Version: 6.00 Build 0)  -->
<svg version="1.1" id="Layer_1" xmlns="http://www.w3.org/2000/svg" xmlns:xlink="http://www.w3.org/1999/xlink" x="0px" y="0px"
	 viewBox="0 0 100.353 100.353" style="enable-background:new 0 0 100.353 100.353;" xml:space="preserve">
<g>
	<path style="fill:#231F20;" d="M90.191,19.754H22.259c-0.829,0-1.5,0.671-1.5,1.5v8.233c0,0.829,0.671,1.5,1.5,1.5
		s1.5-0.671,1.5-1.5v-6.733h64.933v37.781h-6.196c-0.828,0-1.5,0.672-1.5,1.5s0.672,1.5,1.5,1.5h7.696c0.828,0,1.5-0.672,1.5-1.5
		V21.254C91.691,20.425,91.02,19.754,90.191,19.754z"/>
	<path style="fill:#231F20;" d="M78.653,32.328H9.81c-0.829,0-1.5,0.671-1.5,1.5v44.918c0,0.828,0.671,1.5,1.5,1.5h68.843
		c0.828,0,1.5-0.672,1.5-1.5V33.828C80.153,32.999,79.481,32.328,78.653,32.328z M77.153,35.328v31.474L65.96,66.8l-9.969-8.273
		c-0.547-0.454-1.339-0.459-1.894-0.019l-9.702,7.741L29.695,50.057c-0.284-0.313-0.686-0.491-1.108-0.492c-0.001,0-0.002,0-0.003,0
		c-0.421,0-0.822,0.177-1.106,0.487L11.31,67.717V35.328H77.153z M11.31,77.246V72.16l17.27-18.869L43.12,69.308
		c0.534,0.587,1.429,0.658,2.046,0.165l9.848-7.858l9.446,7.84c0.27,0.224,0.608,0.346,0.958,0.346l11.734,0.003v7.444H11.31z"/>
	<path style="fill:#231F20;" d="M64.666,51.264c3.278,0,5.946-2.667,5.946-5.946c0-3.278-2.668-5.946-5.946-5.946
		s-5.946,2.667-5.946,5.946C58.72,48.597,61.388,51.264,64.666,51.264z M64.666,42.372c1.625,0,2.946,1.321,2.946,2.946
		s-1.321,2.946-2.946,2.946s-2.946-1.322-2.946-2.946S63.041,42.372,64.666,42.372z"/>
</g>
</svg>
