<?xml version="1.0" encoding="utf-8"?>
<!-- Generator: Adobe Illustrator 25.3.1, SVG Export Plug-In . SVG Version: 6.00 Build 0)  -->
<svg version="1.1" id="Layer_1" xmlns="http://www.w3.org/2000/svg" xmlns:xlink="http://www.w3.org/1999/xlink" x="0px" y="0px"
	 viewBox="0 0 512 512" style="enable-background:new 0 0 512 512;" xml:space="preserve">
<style type="text/css">
	.st0{fill:#DEF2FC;}
	.st1{fill:#8FA4B5;}
	.st2{fill:#273B4B;}
	.st3{fill:#F79A5B;}
	.st4{clip-path:url(#SVGID_2_);fill:url(#SVGID_3_);}
	.st5{fill:#FFE185;}
	.st6{opacity:0.57;clip-path:url(#SVGID_5_);fill:#F79A5B;}
	.st7{fill:#FBC097;}
	.st8{filter:url(#Adobe_OpacityMaskFilter);}
	.st9{filter:url(#Adobe_OpacityMaskFilter_1_);}
	.st10{mask:url(#SVGID_6_);fill:url(#SVGID_7_);}
	.st11{fill:url(#SVGID_8_);}
	.st12{filter:url(#Adobe_OpacityMaskFilter_2_);}
	.st13{filter:url(#Adobe_OpacityMaskFilter_3_);}
	.st14{mask:url(#SVGID_9_);fill:url(#SVGID_10_);}
	.st15{fill:url(#SVGID_11_);}
	.st16{filter:url(#Adobe_OpacityMaskFilter_4_);}
	.st17{filter:url(#Adobe_OpacityMaskFilter_5_);}
	.st18{mask:url(#SVGID_12_);fill:url(#SVGID_13_);}
	.st19{fill:url(#SVGID_14_);}
	.st20{filter:url(#Adobe_OpacityMaskFilter_6_);}
	.st21{filter:url(#Adobe_OpacityMaskFilter_7_);}
	.st22{mask:url(#SVGID_15_);fill:url(#SVGID_16_);}
	.st23{fill:url(#SVGID_17_);}
	.st24{fill:#F06666;}
	.st25{fill:#9A5E35;}
	.st26{clip-path:url(#SVGID_19_);}
	.st27{fill:#FFFFFF;}
	.st28{filter:url(#Adobe_OpacityMaskFilter_8_);}
	.st29{filter:url(#Adobe_OpacityMaskFilter_9_);}
	.st30{mask:url(#SVGID_20_);fill:url(#SVGID_21_);}
	.st31{fill:url(#SVGID_22_);}
	.st32{filter:url(#Adobe_OpacityMaskFilter_10_);}
	.st33{filter:url(#Adobe_OpacityMaskFilter_11_);}
	.st34{mask:url(#SVGID_23_);fill:url(#SVGID_24_);}
	.st35{fill:url(#SVGID_25_);}
</style>
<g>
	<g>
		<path class="st0" d="M428.4,290.4c-1-0.5-1.9-0.9-2.9-1.3c-22.3-9.3-55.8-5.6-67.1-31.2c-8.8-20,18.1-33.8,10.8-53.8
			c-2.4-6.6-7.3-12.1-12.7-16.6c-42.9-36.2-114.1-39-167-36c-35.8,2.1-66.4,18.9-67.5,57.9c-0.6,19.7,18.6,27.9,32.6,37.1
			c20.6,13.4,28.3,34.8,10.2,55.4c-8.1,9.2-19,15.3-30,20.7c-15.8,7.7-33.6,15.2-46,28c-17,17.6-19.5,43.4-11,65.6
			c7.5,19.6,22.6,35.2,41.4,44.5c24.3,12.1,53.4,10.2,79.7,8.4c51-3.4,102-15.2,148.2-37.5c40.3-19.4,94.5-50.1,100.2-99.4
			C449.5,315.5,444.4,298.3,428.4,290.4z"/>
		<path class="st0" d="M417.8,216.8c2.5,1.2,4.8,1.8,7.2,2.3c1,0.2,2,0.3,2.9,0.4c0.1,1.1,0.2,2.3,0.4,3.4c0.5,2.4,1.2,4.8,2.7,7.2
			c1.3-2.4,2-4.7,2.5-7.1c0.3-1.1,0.5-2.2,0.6-3.4c1.6-0.1,3.3-0.3,4.9-0.6c2.4-0.5,4.8-1.2,7.1-2.5c-2.4-1.4-4.7-2.1-7.1-2.7
			c-1.5-0.3-3.1-0.5-4.6-0.6c0-1.4-0.2-2.9-0.4-4.3c-0.4-2.4-1.1-4.8-2.4-7.2c-1.4,2.4-2.2,4.7-2.8,7c-0.4,1.5-0.6,3.1-0.8,4.7
			c-1.1,0.1-2.2,0.3-3.3,0.6C422.5,214.4,420.1,215.3,417.8,216.8z"/>
		<path class="st0" d="M70.2,287.3c0.1,1.1,0.2,2.3,0.4,3.4c0.5,2.4,1.2,4.8,2.7,7.2c1.3-2.4,2-4.7,2.5-7.1c0.3-1.1,0.5-2.2,0.6-3.4
			c1.6-0.1,3.3-0.3,4.9-0.6c2.4-0.5,4.8-1.2,7.1-2.5c-2.4-1.4-4.7-2.1-7.1-2.7c-1.5-0.3-3.1-0.5-4.6-0.6c0-1.4-0.2-2.9-0.4-4.3
			c-0.4-2.4-1.1-4.8-2.4-7.2c-1.4,2.4-2.2,4.7-2.8,7c-0.4,1.5-0.6,3.1-0.8,4.7c-1.1,0.1-2.2,0.3-3.3,0.6c-2.4,0.6-4.8,1.4-7,2.9
			c2.5,1.2,4.8,1.8,7.2,2.3C68.3,287.1,69.2,287.2,70.2,287.3z"/>
		<path class="st0" d="M407.5,171.5c0.1,0.7,0.2,1.4,0.4,2.2c0.5,1.9,1.2,3.8,2.7,5.6c1.3-1.9,2-3.7,2.5-5.5c0.2-0.7,0.3-1.3,0.5-2
			c1.1-0.1,2.2-0.3,3.4-0.6c1.9-0.5,3.7-1.2,5.6-2.5c-1.8-1.4-3.7-2.1-5.6-2.7c-1-0.3-2-0.5-3-0.6c-0.1-0.9-0.2-1.8-0.4-2.7
			c-0.4-1.9-1.1-3.8-2.5-5.7c-1.4,1.9-2.1,3.7-2.7,5.5c-0.3,1-0.5,2.1-0.7,3.1c-0.7,0.1-1.3,0.3-2,0.4c-1.9,0.6-3.7,1.4-5.5,2.8
			c1.9,1.2,3.8,1.9,5.7,2.3C406.4,171.3,406.9,171.4,407.5,171.5z"/>
		<path class="st0" d="M447.5,283.3c-11.1-8.9-26.9-15-40.4-15.5c-1.4,0-2.5,1-2.6,2.4c0,1.4,1,2.5,2.4,2.6
			c12.4,0.4,27.1,6.1,37.4,14.4c11.8,9.5,18.3,22.4,18.9,37.5c0.7,18.2-7.3,37.1-21.5,50.6c-1,0.9-1,2.5-0.1,3.5
			c0.5,0.5,1.1,0.8,1.8,0.8c0.6,0,1.2-0.2,1.7-0.7c15.3-14.5,23.9-34.8,23.1-54.4C467.6,308,460.4,293.7,447.5,283.3z"/>
		<path class="st0" d="M469.6,278.2c-10.4-17.1-28.2-28.3-51.6-32.3c-12.4-2.1-23.7-5-25.6-16c-0.7-4.1,0.2-8.3,1.2-12.7
			c0.6-2.7,1.2-5.4,1.5-8.2c2-21.2-18.5-40.1-39-44.5c-1.4-0.3-2.7,0.6-3,1.9c-0.3,1.3,0.6,2.7,1.9,3c18.3,3.9,36.8,20.6,35.1,39.2
			c-0.2,2.5-0.8,5-1.4,7.6c-1,4.7-2.1,9.6-1.3,14.7c2.6,15.4,18.9,18.2,29.6,20c15.3,2.6,36,10,48.2,30c0.5,0.8,1.3,1.2,2.1,1.2
			c0.4,0,0.9-0.1,1.3-0.4C469.9,280.9,470.3,279.3,469.6,278.2z"/>
		<path class="st0" d="M111.5,238.1c0.4,0,0.9-0.1,1.2-0.3c1.2-0.7,1.6-2.2,0.9-3.4c-10.8-18.7-8.1-42.9,6.9-61.7
			c14.3-17.9,40.1-25.2,63.5-29.9c1.3-0.3,2.2-1.6,1.9-2.9c-0.3-1.3-1.6-2.2-2.9-1.9c-24.3,4.9-51.1,12.5-66.4,31.6
			c-16.3,20.4-19.1,46.8-7.3,67.3C109.8,237.6,110.6,238.1,111.5,238.1z"/>
		<path class="st0" d="M87.1,331.2c1.2-0.7,1.5-2.3,0.7-3.4c-0.7-1.2-2.3-1.5-3.4-0.7c-27.7,17.8-40.6,53.5-30.7,84.8
			c0.3,1.1,1.3,1.7,2.4,1.7c0.2,0,0.5,0,0.7-0.1c1.3-0.4,2-1.8,1.6-3.1C49.2,381.1,61.3,347.8,87.1,331.2z"/>
	</g>
	<g>
		<g>
			<path class="st1" d="M306.6,91.2c-0.3-0.3-0.8-0.3-1.2,0c-15.3,14.6-40.1,13.8-62,13.1c-6.4-0.2-12.4-0.4-18-0.2
				c-31.5,1-55.1,7.5-72.4,19.9c-13.1,9.4-26.5,26.2-24.5,45.1c1.1,10.3,6.2,18.9,15.3,25.4c12.7,9.2,31.8,13.2,48.8,13.2
				c6.9,0,13.5-0.7,19.2-1.9c0.4-0.1,0.7-0.5,0.6-1c-0.1-0.4-0.5-0.7-1-0.6c-19.2,4.2-49.1,1.7-66.6-11
				c-8.7-6.3-13.6-14.5-14.6-24.3c-1.9-18.1,11.1-34.4,23.8-43.5c16.9-12.2,40.3-18.6,71.4-19.6c5.5-0.2,11.5,0,17.9,0.2
				c22.2,0.7,47.4,1.5,63.2-13.6C306.9,92.1,306.9,91.5,306.6,91.2z"/>
			<path class="st1" d="M161.6,219.6c-17.7,4.1-39.7,9.2-56.8,0.9c-15.3-7.4-26.9-21.4-31-37.5c-8.5-33.4,15.4-58.8,42.5-81.1
				c0.4-0.3,0.4-0.8,0.1-1.2c-0.3-0.4-0.8-0.4-1.2-0.1c-27.5,22.7-51.8,48.5-43,82.8c4.2,16.5,16.1,30.9,31.9,38.6
				c7,3.4,14.7,4.6,22.5,4.6c12.1,0,24.5-2.9,35.4-5.4l-0.1-0.8L161.6,219.6z"/>
			<path class="st1" d="M98.4,141.9c-0.4-0.3-0.9-0.2-1.2,0.1c-8.7,11.2-12,29.2-8,43.9c5.6,20.4,23.8,27.5,40.7,27.5
				c1.7,0,3.5-0.1,5.1-0.2c0.5,0,0.8-0.4,0.8-0.9c0-0.5-0.5-0.8-0.9-0.8c-17.5,1.5-38.3-4.6-44.1-26c-3.9-14.1-0.7-31.6,7.7-42.4
				C98.9,142.7,98.8,142.2,98.4,141.9z"/>
		</g>
		<g>
			<path class="st2" d="M261.8,43.1l0.2,0l-7.9,23.6c-0.3-0.4-0.6-0.8-1.2-1c-1.7-0.7-4.3-0.5-6,0.4c-1.9,1.1-3.1,3.3-1.9,5.4
				c1.5,2.6,5.4,1.1,7.3-0.1c0.2-0.1,0.3-0.2,0.5-0.3c0.1,0.2,0.3,0.4,0.5,0.5c0.1,0,0.2,0,0.3,0c0.3,0,0.7-0.2,0.8-0.6l9.4-28
				l15.7,0.3l-7.7,23c-0.3-0.3-0.6-0.6-1-0.7c-1.7-0.7-4.3-0.5-6,0.4c-1.9,1.1-3.1,3.3-1.9,5.4c1.5,2.6,5.4,1.1,7.3-0.1
				c0.2-0.1,0.3-0.2,0.4-0.3c0.1,0.1,0.2,0.2,0.3,0.2c0.1,0,0.2,0,0.3,0c0.3,0,0.7-0.2,0.8-0.6l9.2-27.4l14.9,0.3l-7.7,23
				c-0.3-0.5-0.7-0.9-1.3-1.2c-1.7-0.7-4.3-0.5-6,0.4c-1.9,1.1-3.1,3.3-1.9,5.4c1.5,2.6,5.4,1.1,7.3-0.1c0.2-0.1,0.3-0.2,0.4-0.3
				l0,0c-0.1,0.4,0.1,0.9,0.5,1c0.1,0,0.2,0,0.3,0c0.3,0,0.7-0.2,0.8-0.6l9.3-27.7l0.3,0l2.3-8.1l-36-0.8L261.8,43.1z"/>
			<path class="st2" d="M149.7,79.5l0.2,0l-7.9,23.6c-0.3-0.4-0.7-0.8-1.2-1c-1.7-0.7-4.3-0.5-6,0.4c-1.9,1.1-3.1,3.3-1.9,5.4
				c1.5,2.6,5.4,1.1,7.3-0.1c0.2-0.1,0.3-0.2,0.5-0.3c0.1,0.2,0.3,0.4,0.5,0.5c0.1,0,0.2,0,0.3,0c0.3,0,0.7-0.2,0.8-0.6l9.4-28
				l15.7,0.3l-7.6,22.6c-0.3-0.5-0.7-0.9-1.3-1.2c-1.7-0.7-4.3-0.5-6,0.4c-1.9,1.1-3.1,3.3-1.9,5.4c1.5,2.6,5.4,1.1,7.3-0.1
				c0.2-0.1,0.3-0.2,0.4-0.3l0,0c-0.1,0.4,0.1,0.9,0.5,1c0.1,0,0.2,0,0.3,0c0.3,0,0.7-0.2,0.8-0.6l9.2-27.3l0,0l2.7-7.9l-19.5-0.4
				L149.7,79.5z"/>
			<path class="st2" d="M222.2,99.2c-0.5-0.7-1-1.6-1.4-2.4c-0.8-1.7-1.1-3.4-1-5.5l0,0c0-0.3-0.1-0.6-0.4-0.8
				c-0.4-0.2-0.9-0.1-1.2,0.3c-0.7,1.1-1,2.3-1.1,3.7l-7.2,19.8c-0.2-0.3-0.3-0.5-0.6-0.7c-0.4-0.4-0.9-0.6-1.4-0.7
				c-4.5-1-12.6,4.4-9,9.5c2.4,3.4,6.4,1.9,9-0.9l1.1,0.4l8.6-23.5c0.3,1.1,0.8,2.2,1.4,3.2c0.7,1.1,1.3,1.9,1.7,2.6
				c0.4,0.7,0.6,1.3,0.6,1.9c0,0.6-0.2,1.4-0.6,2.2c-0.8,1.6-2.2,3.3-3.2,5.4c-0.1,0.3-0.1,0.6,0.1,0.9c0.3,0.4,0.8,0.4,1.2,0.1l0,0
				c1.6-1.3,3.4-2.5,4.9-4.5c0.7-1,1.4-2.2,1.6-3.8c0.2-1.5-0.3-3.1-1-4.2C223.5,100.8,222.8,100,222.2,99.2z"/>
			<path class="st2" d="M394.9,114.1c-0.2-3-1.4-6.2-3.8-8.4c-1.2-1.1-2.5-2-4-2.6c-1.5-0.6-3.2-0.8-4.8-0.6c-0.2,0-0.3,0.1-0.5,0.1
				c0.3-3.7,0.6-7.4,1-11c0.1-1,0.3-2.1,0.4-3.1c0.7-0.7,1.4-1.5,2.2-2.2c1.9-1.9,3.9-3.8,5.4-6.2c0.8-1.2,1.4-2.4,1.9-3.8
				c0.2-0.7,0.4-1.4,0.4-2.3c0-0.4,0-0.9-0.2-1.4c-0.2-0.5-0.6-1-1-1.3c-1-0.6-1.9-0.5-2.7-0.4c-0.9,0.1-1.7,0.6-2.2,1.1
				c-1.2,1-1.9,2.3-2.5,3.6c-0.6,1.3-1.1,2.6-1.4,3.9c-0.4,1.4-0.6,2.6-0.8,4c-0.2,0.9-0.3,1.7-0.4,2.6c-0.4,0.3-0.7,0.6-1.1,0.9
				c-1,0.9-2,1.7-3.1,2.5c-2.1,1.6-4.2,3.1-6.4,4.8c-2.1,1.7-4.1,3.5-6,5.5c-1.8,2-3.6,4.4-4.9,7c-1.2,2.6-2.1,5.4-2.4,8.3
				c-0.3,2.9-0.1,5.8,0.9,8.6c0.5,1.4,1.2,2.7,2.1,3.8c0.9,1.2,2,2.2,3.1,3c0.6,0.5,1.2,0.8,1.8,1.1l0.9,0.5c0.3,0.1,0.7,0.2,1,0.4
				c1.3,0.5,2.7,1,4.1,1.1c1.5,0.2,3,0.2,4.4,0c-0.4,1.6-0.8,3.3-1.2,4.9c-0.7,2.5-1.5,5-2.8,7.2c-1.3,2.2-3.1,4.1-5.4,4.8
				c-1.1,0.4-2.4,0.4-3.5,0.1c-1.1-0.4-1.9-1.1-2.5-2.2c-0.4-0.9-0.6-1.8-0.5-2.7c1.5,3.8,8.4,2.5,7.3-2.3c-0.7-2.9-3.8-3.1-5.8-1.8
				c-1.4,0.5-2.5,1.6-2.8,3c-0.4,1.5-0.1,3.1,0.6,4.4c0.7,1.3,1.9,2.4,3.4,2.9c1.5,0.4,3,0.3,4.3-0.2c1.4-0.5,2.6-1.2,3.6-2.2
				c1-1,1.8-2.1,2.5-3.3c1.4-2.4,2.2-5,2.9-7.6c0.5-1.8,0.9-3.6,1.4-5.4c0.8-0.1,1.6-0.3,2.4-0.4c2.7-0.6,5.3-1.6,7.8-3.2
				c1.2-0.8,2.3-1.8,3.3-2.9c1-1.1,1.8-2.7,2.3-3.9C394.5,120,395.2,117.1,394.9,114.1z M384,83.8c0.3-1.3,0.5-2.6,0.9-3.8
				c0.4-1.2,0.8-2.4,1.4-3.5c0.6-1.1,1.2-2.2,2.1-2.8c0.4-0.3,0.8-0.6,1.2-0.6c0.4-0.1,1,0,1.1,0.1c0.1,0.1,0.2,0.3,0.2,0.8
				c0,0.5-0.2,1-0.4,1.6c-0.4,1.1-1,2.2-1.7,3.2c-1.3,1.9-3.1,3.7-4.9,5.3C384,84,384,83.9,384,83.8z M376.8,131
				c-1.6,0.3-3.1,0.4-4.7,0.2c-2.4-0.2-4.8-1.3-6.7-2.7c-1.9-1.5-3.3-3.6-3.8-5.9c-0.5-2.3-0.4-4.7,0.2-7.1c0.5-2.3,1.6-4.6,2.8-6.6
				c0.6-1,1.3-2,2-2.9c0.7-0.9,1.6-1.9,2.4-2.8c3.5-3.6,7.2-7.3,10.9-11.2c0.4-0.4,0.8-0.9,1.2-1.3c0,0.2-0.1,0.4-0.1,0.6
				c-0.4,3.9-0.6,7.7-0.8,11.6c-2.3,0.7-4.3,2.2-5.9,3.8c-2,2.2-3.5,5-3.6,8.1c-0.1,1.6,0.4,3.2,1.3,4.5c0.9,1.3,2.2,2.2,3.6,2.7
				l0.7-1.5c-2.1-1.2-3.2-3.3-2.8-5.5c0.3-2.2,1.6-4.3,3.3-5.8c0.9-0.9,2-1.6,3.1-2c-0.3,5.3-0.9,10.4-1.7,15.6
				C377.8,125.6,377.3,128.3,376.8,131z M389.8,121.4c-0.4,1.2-0.7,2.1-1.4,3c-0.7,0.9-1.5,1.8-2.4,2.5c-1.9,1.5-4.1,2.7-6.5,3.4
				c-0.4,0.1-0.8,0.2-1.2,0.3c0.5-2.5,0.9-5.1,1.3-7.6c0.8-5.2,1.5-10.5,1.8-15.8c0-0.2,0-0.4,0-0.6c0.4-0.1,0.8-0.2,1.2-0.2
				c2-0.2,3.9,0.8,5.5,2.2C391.1,111.7,391.2,116.9,389.8,121.4z"/>
		</g>
	</g>
	<g>
		<path class="st3" d="M317.3,140.4c-0.3-0.3-0.7-0.4-1.1-0.1c-0.4,0.3-0.5,0.8-0.2,1.1l0,0c0.7,1.1,0.9,2.4,0.7,3.7
			c-0.2,1.3-0.8,2.4-1.7,3.4c-0.9,1-2,1.8-3.2,2.3c-0.6,0.3-1.2,0.6-1.9,0.8c-0.6,0.2-1.3,0.3-1.9,0.4c-2.6,0.3-5.2-0.6-7.6-2.1
			c-2.4-1.4-4.7-3.4-7.1-5.3c-1.2-1-2.3-2-3.7-2.9c-1.3-0.9-2.7-1.8-4.3-2.4c-3-1.3-6.4-2-9.7-1.6c-3.3,0.4-6.5,1.7-9,3.7
			c-1.4,1.1-2.7,2.4-3.8,3.7c-11-3.5-20-3.3-27.5-0.6c-19.4,3.5-31.2,20.5-41,38.5c-1.9,3.5-3.8,7.1-5.6,10.6
			c-7,13.5-14.1,27.4-25.3,38c-7.1,6.7-15.6,11.9-23.8,16.9c-9.9,6-20.2,12.3-28.1,21.3c-15.4,17.7-18.8,46.1-8.2,69
			c0.1,0.3,0.4,0.5,0.8,0.5c0.1,0,0.2,0,0.3-0.1c0.4-0.2,0.6-0.7,0.4-1.1c-10.3-22.4-7.1-50,8-67.3c7.7-8.9,17.9-15,27.7-21
			c8.3-5,16.9-10.3,24.1-17.1c11.4-10.8,18.6-24.9,25.6-38.5c1.8-3.5,3.7-7.1,5.6-10.6c8.2-15,17.7-29.2,31.8-35.3
			c-23.3,16-30.9,59.9-48,83.2c-30,41-89.4,32.7-58.4,111.8c-31.1,55.4,0.1,88.3,41.1,84.2c-5.2,2.4-10.9,4-16.6,4.6
			c-12.7,1.2-24.5-2.8-33.1-11.4c-8.2-8.2-12.8-20.2-12.6-33.1c0-0.5-0.4-0.8-0.8-0.8c-0.5,0-0.8,0.4-0.8,0.8
			c-0.2,13.3,4.6,25.8,13.1,34.3c7.9,7.9,18.3,12.1,29.7,12.1c1.5,0,3.1-0.1,4.6-0.2c7.4-0.7,14.7-3.1,21.2-6.8
			c0.7-0.1,1.4-0.2,2.1-0.4c-2.6,55.4,86.5,26.7,88.6-14.1l14.9-133.3l-17.8-81.1l23.2-33.5c11.8-16.6,3.3-27.6-9.1-21.8
			c2.2-1.2,4.5-2,6.9-2.2c2.8-0.2,5.5,0.5,8,1.6c2.5,1.2,4.7,3,7.1,5c2.3,2,4.7,4,7.5,5.6c2.8,1.7,6.3,2.8,9.8,2.3
			c0.9-0.2,1.7-0.3,2.5-0.7c0.8-0.3,1.6-0.7,2.3-1.1c1.5-0.8,2.8-2,3.9-3.3c1-1.4,1.7-3.1,1.8-4.9
			C319.1,143.6,318.5,141.7,317.3,140.4z"/>
		<g>
			<defs>
				<path id="SVGID_1_" d="M278.3,164.8c13.2-18.6,1-30.1-13.7-19c-55.6-19.3-61,53.5-84.9,86.1c-30,41-89.4,32.7-58.4,111.8
					c-32.8,58.5,3.8,91.9,48,83.2c-2.6,55.4,86.5,26.7,88.6-14.1l14.9-133.3l-17.8-81.1L278.3,164.8z"/>
			</defs>
			<clipPath id="SVGID_2_">
				<use xlink:href="#SVGID_1_"  style="overflow:visible;"/>
			</clipPath>
			<linearGradient id="SVGID_3_" gradientUnits="userSpaceOnUse" x1="103.4792" y1="281.7788" x2="276.7985" y2="367.8398">
				<stop  offset="0.3496" style="stop-color:#F79A5B"/>
				<stop  offset="0.8045" style="stop-color:#B2994C"/>
			</linearGradient>
			<path class="st4" d="M220,414.7c-6.7,1.6-13.6,2.2-21,1.2c-23.1-3.2-46.1-22.4-45.4-47.3c0.6-19,9.1-30.3-4.6-46.2
				c-12-14-12.2-30.5,2.1-44c22.2-21,60.5-16.7,77.6-42.8c14.1-21.6,40.5-56.2,22.7-82.9c16.1-6.8,36.7-12.9,50.1,1.1
				c18,18.8,22.7,37.2,23.5,63c0.4,11.1-2.3,22-3.4,33c-1.2,11.4,1.3,19.8,3.5,30.7c3.5,17.4,0.7,35.9,3,53.6
				c4.7,35.7-1.7,70.8-9.7,105.8c-3,13.1-6.7,25.6-14.4,36.9c-14.9,21.9-36.2,44.5-61.5,53.4c-38.8,13.7-85,14.9-118-12.6
				c-24.9-20.8-38.3-54.9-36.1-87c1.1-15.7,9.5-37.1,28.7-27.8c12.9,6.2,21.5,20.5,30,31.3c20.4,26.1,42.7,35,75.3,29.2
				c28-5,75.8-18.5,85.9-49.7c6-18.7-6.1-34.2-25.3-28.2C261.3,392.3,242.2,409.3,220,414.7z"/>
		</g>
		<path class="st5" d="M329.2,460.5l-88.9,8.8l-11.1-48.5c9.5,6.3,21.3,1.6,35.9-16c14.9,27.5,30.6,26.8,47.2-3.7
			c2.2,1.4,4.4,2.6,6.4,3.7L329.2,460.5z"/>
		<g>
			<defs>
				<polygon id="SVGID_4_" points="329.2,460.5 309.3,355.6 216.6,366.1 240.3,469.3 				"/>
			</defs>
			<clipPath id="SVGID_5_">
				<use xlink:href="#SVGID_4_"  style="overflow:visible;"/>
			</clipPath>
			<path class="st6" d="M286.6,364.5c-24,6.4-47.9,13.2-71.4,21.3c0.1,0.6,0.2,1.3,0.3,1.9c5,24.3,13.3,47.8,20.3,71.5
				c1.5-3,2.6-6.2,4.6-9.2c3.5-5.1,8.7-8.5,12.7-13.5c3-3.9,5.1-8.7,7.9-12.8c1.2-1.8,2.7-2.9,3.8-4.8c1.2-2,2.1-4.2,3.4-6.1
				c0.5-0.8,1.1-1.5,1.6-2.3c0.6-1,0.9-2.3,1.2-3.4c0.7-2.9,1.4-5.8,2-8.7c0.4-2,0.9-4.1,1.5-6.1c0.6-1.9,1.3-3.7,2-5.5
				c1.8-4.5,3.7-8.9,5.8-13.1c0.9-1.7,2-4,3-6c0.6-1.2,1.2-2.3,1.8-3.2C286.9,364.4,286.7,364.4,286.6,364.5z"/>
			<path class="st6" d="M330.7,439.6c0.1-1.6,0.3-3.2,0.6-4.6c-3.5-11.9-7.2-23.6-9.9-35.8c-2.9-13.2-7.1-27.1-9.5-40.9
				c-0.5,0.1-1,0.2-1.6,0.2c-0.8,2.6-1.7,5.3-2.8,7.9c-2,5.1-5.2,9.8-6.8,15.3c-1.2,4.2-1.3,8.5-3,12.7c-1.1,2.7-2.8,5.3-3.4,8
				c-0.3,1.5-0.3,2.8-0.4,4.3c-0.4,3.6-2.1,7.8-4.6,10.8c-1,1.2-2.1,2.2-2.9,3.7c-1,1.8-1.7,4.3-3.1,5c-0.5,0.3-1.1,0.2-1.6,0.6
				c-0.3,0.4-0.6,0.8-0.8,1.3c-0.6,1.4-1.3,2.8-1.8,4.2c-0.6,1.5-1.1,3-1.6,4.7c-0.6,2.8-0.8,5.5-0.2,7.7c-3.7,3.6-7,8.8-9.3,14.7
				c-0.9,2.5-1.7,5.3-1.4,7.6c0,0.3,0.1,0.6,0.2,0.9c13.3-0.5,26.7-1.7,39.9-2.7c8.3-0.7,17-1.4,25.5-0.7
				C331,456.2,330.4,447.5,330.7,439.6z"/>
		</g>
		<path class="st7" d="M259,296.1c-5.8-4.5-12.3-9.7-19.4-15.4c-2.2-1.8-4.4-3.6-6.8-5.5c13.1-11.6,19.5-31.6,15.6-52.5
			c-0.4-0.1,1.5-0.7,4.8-1.4c3.4-0.8,8.2-1.8,13.3-2.8c3.3,1.6,6.9,2.7,10.6,3.3c4.3,0.7,8.9,0.8,13.5,0.2
			c-10.4,33-9.8,51.7-0.8,54.6C303,323.3,291.6,321.2,259,296.1z"/>
		<defs>
			<filter id="Adobe_OpacityMaskFilter" filterUnits="userSpaceOnUse" x="232.9" y="218.5" width="44.4" height="62.2">
				<feFlood  style="flood-color:white;flood-opacity:1" result="back"/>
				<feBlend  in="SourceGraphic" in2="back" mode="normal"/>
			</filter>
		</defs>
		<mask maskUnits="userSpaceOnUse" x="232.9" y="218.5" width="44.4" height="62.2" id="SVGID_6_">
			<g class="st8">
				<defs>
					<filter id="Adobe_OpacityMaskFilter_1_" filterUnits="userSpaceOnUse" x="232.9" y="218.5" width="44.4" height="62.2">
						<feFlood  style="flood-color:white;flood-opacity:1" result="back"/>
						<feBlend  in="SourceGraphic" in2="back" mode="normal"/>
					</filter>
				</defs>
				<mask maskUnits="userSpaceOnUse" x="232.9" y="218.5" width="44.4" height="62.2" id="SVGID_6_">
					<g class="st9">
					</g>
				</mask>
				<linearGradient id="SVGID_7_" gradientUnits="userSpaceOnUse" x1="232.8649" y1="249.6015" x2="277.2444" y2="249.6015">
					<stop  offset="0" style="stop-color:#808080"/>
					<stop  offset="1" style="stop-color:#FFFFFF"/>
				</linearGradient>
				<path class="st10" d="M277.2,221.7c-5.1,15.7-13.5,30.5-23.6,43.8c-4,5.3-8.7,10.4-14,15.2c-2.2-1.8-4.4-3.6-6.8-5.5
					c13.1-11.6,19.5-31.6,15.6-52.5c-0.4-0.1,1.5-0.7,4.8-1.4c3.4-0.8,8.2-1.8,13.3-2.8C269.9,220.1,273.5,221.2,277.2,221.7z"/>
			</g>
		</mask>
		<linearGradient id="SVGID_8_" gradientUnits="userSpaceOnUse" x1="232.8649" y1="249.6015" x2="277.2444" y2="249.6015">
			<stop  offset="0" style="stop-color:#FBC097"/>
			<stop  offset="1" style="stop-color:#FBC097"/>
		</linearGradient>
		<path class="st11" d="M277.2,221.7c-5.1,15.7-13.5,30.5-23.6,43.8c-4,5.3-8.7,10.4-14,15.2c-2.2-1.8-4.4-3.6-6.8-5.5
			c13.1-11.6,19.5-31.6,15.6-52.5c-0.4-0.1,1.5-0.7,4.8-1.4c3.4-0.8,8.2-1.8,13.3-2.8C269.9,220.1,273.5,221.2,277.2,221.7z"/>
		<path class="st7" d="M401.5,302.6c-18.4,27.5-71.9,39.3-124.2,33.1c-0.8-0.1-1.6-0.2-2.3-0.3c-12.5-1.6-25-4.2-36.8-7.9l-1.7-18.2
			l67.1-3.3l10.3-0.5l56.1-2.8l-35.2-26.5l-4.6-3.4l-31-23.4l-18.6-14l-8.3-29.8l23.7,14.9c6,2.7,11.9,5.5,17.6,8.4
			c10.2,5.2,19.8,10.9,28.8,16.8c1.2,0.8,2.5,1.7,3.7,2.5C370,264.4,388.7,283,401.5,302.6z"/>
		<defs>
			<filter id="Adobe_OpacityMaskFilter_2_" filterUnits="userSpaceOnUse" x="272.4" y="205.5" width="41.3" height="43.8">
				<feFlood  style="flood-color:white;flood-opacity:1" result="back"/>
				<feBlend  in="SourceGraphic" in2="back" mode="normal"/>
			</filter>
		</defs>
		<mask maskUnits="userSpaceOnUse" x="272.4" y="205.5" width="41.3" height="43.8" id="SVGID_9_">
			<g class="st12">
				<defs>
					<filter id="Adobe_OpacityMaskFilter_3_" filterUnits="userSpaceOnUse" x="272.4" y="205.5" width="41.3" height="43.8">
						<feFlood  style="flood-color:white;flood-opacity:1" result="back"/>
						<feBlend  in="SourceGraphic" in2="back" mode="normal"/>
					</filter>
				</defs>
				<mask maskUnits="userSpaceOnUse" x="272.4" y="205.5" width="41.3" height="43.8" id="SVGID_9_">
					<g class="st13">
					</g>
				</mask>
				<linearGradient id="SVGID_10_" gradientUnits="userSpaceOnUse" x1="272.3592" y1="227.395" x2="313.6755" y2="227.395">
					<stop  offset="0" style="stop-color:#808080"/>
					<stop  offset="1" style="stop-color:#FFFFFF"/>
				</linearGradient>
				<path class="st14" d="M313.7,228.8c-4.3,5-8.2,10.3-11.7,16c-0.9,1.5-1.8,3-2.7,4.5l-18.6-14l-8.3-29.8l23.7,14.9
					C302.1,223.1,308,225.9,313.7,228.8z"/>
			</g>
		</mask>
		<linearGradient id="SVGID_11_" gradientUnits="userSpaceOnUse" x1="272.3592" y1="227.395" x2="313.6755" y2="227.395">
			<stop  offset="0" style="stop-color:#FBC097"/>
			<stop  offset="1" style="stop-color:#FBC097"/>
		</linearGradient>
		<path class="st15" d="M313.7,228.8c-4.3,5-8.2,10.3-11.7,16c-0.9,1.5-1.8,3-2.7,4.5l-18.6-14l-8.3-29.8l23.7,14.9
			C302.1,223.1,308,225.9,313.7,228.8z"/>
		<defs>
			<filter id="Adobe_OpacityMaskFilter_4_" filterUnits="userSpaceOnUse" x="274.9" y="245.6" width="126.6" height="91.7">
				<feFlood  style="flood-color:white;flood-opacity:1" result="back"/>
				<feBlend  in="SourceGraphic" in2="back" mode="normal"/>
			</filter>
		</defs>
		<mask maskUnits="userSpaceOnUse" x="274.9" y="245.6" width="126.6" height="91.7" id="SVGID_12_">
			<g class="st16">
				<defs>
					<filter id="Adobe_OpacityMaskFilter_5_" filterUnits="userSpaceOnUse" x="274.9" y="245.6" width="126.6" height="91.7">
						<feFlood  style="flood-color:white;flood-opacity:1" result="back"/>
						<feBlend  in="SourceGraphic" in2="back" mode="normal"/>
					</filter>
				</defs>
				<mask maskUnits="userSpaceOnUse" x="274.9" y="245.6" width="126.6" height="91.7" id="SVGID_12_">
					<g class="st17">
					</g>
				</mask>
				<linearGradient id="SVGID_13_" gradientUnits="userSpaceOnUse" x1="274.9427" y1="291.469" x2="401.5238" y2="291.469">
					<stop  offset="0" style="stop-color:#808080"/>
					<stop  offset="1" style="stop-color:#FFFFFF"/>
				</linearGradient>
				<path class="st18" d="M401.5,302.6c-18.4,27.5-71.9,39.3-124.2,33.1c-0.8-0.1-1.6-0.2-2.3-0.3c9.5-9.9,19.3-19.5,28.7-29.5
					l10.3-0.5l56.1-2.8l-35.2-26.5l-4.6-3.4c5.1-8.4,9.1-17.3,12.2-27.1c1.2,0.8,2.5,1.7,3.7,2.5C370,264.4,388.7,283,401.5,302.6z"
					/>
			</g>
		</mask>
		<linearGradient id="SVGID_14_" gradientUnits="userSpaceOnUse" x1="274.9427" y1="291.469" x2="401.5238" y2="291.469">
			<stop  offset="0" style="stop-color:#FBC097"/>
			<stop  offset="1" style="stop-color:#FBC097"/>
		</linearGradient>
		<path class="st19" d="M401.5,302.6c-18.4,27.5-71.9,39.3-124.2,33.1c-0.8-0.1-1.6-0.2-2.3-0.3c9.5-9.9,19.3-19.5,28.7-29.5
			l10.3-0.5l56.1-2.8l-35.2-26.5l-4.6-3.4c5.1-8.4,9.1-17.3,12.2-27.1c1.2,0.8,2.5,1.7,3.7,2.5C370,264.4,388.7,283,401.5,302.6z"/>
		<path class="st7" d="M323.4,203.9c-0.2,0.3-0.4,0.6-0.6,0.9c-7.1,9.8-19.6,15.7-32.1,17.2c-8.5,1-17.1-0.1-24.1-3.5
			c-4.5-2.2-8.3-5.3-11.1-9.4c4.8-9.2,7.5-18.5,7.8-28c0.2-7.7-1.2-15.5-4.5-23.4c12.6-9.7,29.1,13.9,41.9,6.2
			c2.8-1.7,5.5-3.5,6.4-3.1c4.2,2,3.6,9.2,1.7,13.2c0.5,1.2,2.6,1.4,3.2,1.2c1.6,0.4,1,3.4,0,5.1c1.1,0.1,2,0.9,2.7,2.2
			c-2.2,3-1.1,5.5,1,6.7C319.1,191.1,328.1,197,323.4,203.9z"/>
		<defs>
			<filter id="Adobe_OpacityMaskFilter_6_" filterUnits="userSpaceOnUse" x="255.5" y="181.1" width="67.3" height="41.2">
				<feFlood  style="flood-color:white;flood-opacity:1" result="back"/>
				<feBlend  in="SourceGraphic" in2="back" mode="normal"/>
			</filter>
		</defs>
		<mask maskUnits="userSpaceOnUse" x="255.5" y="181.1" width="67.3" height="41.2" id="SVGID_15_">
			<g class="st20">
				<defs>
					<filter id="Adobe_OpacityMaskFilter_7_" filterUnits="userSpaceOnUse" x="255.5" y="181.1" width="67.3" height="41.2">
						<feFlood  style="flood-color:white;flood-opacity:1" result="back"/>
						<feBlend  in="SourceGraphic" in2="back" mode="normal"/>
					</filter>
				</defs>
				<mask maskUnits="userSpaceOnUse" x="255.5" y="181.1" width="67.3" height="41.2" id="SVGID_15_">
					<g class="st21">
					</g>
				</mask>
				<linearGradient id="SVGID_16_" gradientUnits="userSpaceOnUse" x1="255.5182" y1="201.7216" x2="322.7832" y2="201.7216">
					<stop  offset="0" style="stop-color:#808080"/>
					<stop  offset="1" style="stop-color:#FFFFFF"/>
				</linearGradient>
				<path class="st22" d="M322.8,204.8c-7.1,9.8-19.6,15.7-32.1,17.2c-8.5,1-17.1-0.1-24.1-3.5c-4.5-2.2-8.3-5.3-11.1-9.4
					c4.8-9.2,7.5-18.5,7.8-28c4.9,5.2,10.4,9.8,16.5,13.2C291.8,201,307.6,204.1,322.8,204.8z"/>
			</g>
		</mask>
		<linearGradient id="SVGID_17_" gradientUnits="userSpaceOnUse" x1="255.5182" y1="201.7216" x2="322.7832" y2="201.7216">
			<stop  offset="0" style="stop-color:#FBC097"/>
			<stop  offset="1" style="stop-color:#FBC097"/>
		</linearGradient>
		<path class="st23" d="M322.8,204.8c-7.1,9.8-19.6,15.7-32.1,17.2c-8.5,1-17.1-0.1-24.1-3.5c-4.5-2.2-8.3-5.3-11.1-9.4
			c4.8-9.2,7.5-18.5,7.8-28c4.9,5.2,10.4,9.8,16.5,13.2C291.8,201,307.6,204.1,322.8,204.8z"/>
		<path class="st5" d="M355.7,382.5c-2.5,27.3-15.5,33.4-37,22.3c-2.1-1.1-4.2-2.3-6.4-3.7c-16.6,30.5-32.3,31.2-47.2,3.7
			c-14.5,17.6-26.4,22.3-35.9,16c-5.3-3.5-9.9-10.5-13.8-20.5c-42.2,36.7-42.5-6.5-9.1-113.8c-1.2,0.4,23.2-14.1,23.2-14.1
			c1.2,0.9,2.3,1.9,3.4,2.8c52.1,42.4,73.2,59,57,1.3c-0.2-0.9-0.5-1.9-0.8-2.9l10.8-3.3L355.7,382.5z"/>
		<path class="st24" d="M313.1,175.4c0.7,1.8,0.3,4-0.7,5.7c-1,1.7-2.5,3-4,4c-1.5,1-3.2,1.8-4.8,2.3c-1.7,0.5-3.4,0.9-5.2,0.9
			c-0.5,0-0.9-0.4-0.9-0.8c0-0.4,0.2-0.7,0.5-0.8l0,0c3-1.3,5.8-2.7,8.2-4.5c1.2-0.9,2.2-2,3-3.1c0.8-1.1,1.5-2.2,2.2-3.7l0-0.1
			c0.2-0.4,0.8-0.6,1.2-0.4C312.9,175.1,313.1,175.3,313.1,175.4z"/>
		<path class="st25" d="M284.9,173.6c1.1,0.9,1.8,2.4,1.8,3.9c0,1.5-0.5,2.9-1.3,4.1c-1.5,2.3-3.7,3.9-6.2,4.7
			c-0.4,0.1-0.9-0.1-1.1-0.5c-0.1-0.3,0-0.7,0.3-0.9l0,0c1.7-1.5,3.3-3.1,4.3-4.8c0.5-0.9,0.8-1.8,0.9-2.6c0.1-0.9,0.1-1.7-0.1-2.8
			l0-0.1c-0.1-0.5,0.2-0.9,0.7-1C284.4,173.4,284.7,173.5,284.9,173.6z"/>
		<path class="st24" d="M284.5,187.7c-4.3,1.4-8.3,8.7-5.4,12.5c1.6,2.1,4.1,1.6,5.9,0c3-2.8,3.4-7.8,1.9-11.4
			c-0.2-0.4-0.4-0.7-0.7-1C285.7,187.5,285.1,187.5,284.5,187.7C284.5,187.6,284.5,187.6,284.5,187.7z"/>
		<path class="st25" d="M271,163.1c-0.5,1.1-0.7,2-1.1,3.2c-0.4,1.1-0.7,2.4-1,3.7c-0.5,2.6-0.4,5.3-0.7,8.3c0,0.5-0.5,0.8-0.9,0.8
			c-0.3,0-0.6-0.3-0.7-0.6c-0.9-2.8-1.5-5.7-1.3-8.9c0.1-1.6,0.4-3.1,1-4.6c0.3-0.8,0.8-1.5,1.4-2.2c0.6-0.6,1.6-1.2,2.6-1.2
			c0.5,0,0.9,0.4,0.8,0.9c0,0.1,0,0.2-0.1,0.3L271,163.1z"/>
		<g>
			<path class="st3" d="M142,337.9c-7-9.3-14-20.8-12.7-35.5c2.1-24.6,24.4-37.8,37.5-43.4c31.2-13.5,68.4-33.9,79.2-72.5
				c1.8-6.6,5-23.1-4.9-34.2l1.2-1.1c10.4,11.7,7.1,28.9,5.2,35.7c-10.9,39.3-48.5,60-80.1,73.6c-12.8,5.5-34.5,18.3-36.5,42.1
				c-1.2,14.1,5.6,25.3,12.4,34.4L142,337.9z"/>
		</g>
		<g>
			<path class="st3" d="M144.6,408.4c-4.6,0-9.1-1.1-13.2-3.3c-8.8-4.7-13.8-13.5-13.8-24.1l1.7,0c0,10,4.7,18.3,13,22.7
				c8.8,4.7,19.6,4,28.3-1.8c16-10.7,12.4-35.9,11-43.4c-1-4.9-2.2-9.8-3.4-15c-6.5-26.3-13.2-53.5,13.6-71.3
				c6.3-4.2,13.6-6.9,20.7-9.4c2.6-0.9,5.2-1.9,7.8-2.9c21.3-8.5,34.2-29.5,33.5-55l1.7,0c0.7,26.1-12.5,47.8-34.5,56.5
				c-2.6,1-5.2,2-7.8,2.9c-6.9,2.5-14.1,5.1-20.3,9.2c-25.8,17.2-19.2,43.8-12.9,69.5c1.2,5,2.5,10.1,3.5,15
				c1.5,7.7,5.2,33.8-11.7,45.1C156.2,406.7,150.4,408.4,144.6,408.4z"/>
		</g>
		<g>
			<defs>
				<path id="SVGID_18_" d="M299.8,270.4l-10.8,3.3c0.3,1,0.6,1.9,0.8,2.9c16.2,57.6-4.9,41.1-57-1.3c-1.1-0.9-2.3-1.9-3.4-2.8
					c0,0-24.4,14.5-23.2,14.1c-33.4,107.4-33.1,150.6,9.1,113.8c3.9,10.1,8.5,17,13.8,20.5l11.1,48.5l88.9-8.8l-10.5-55.7
					c21.5,11.1,34.5,5,37-22.3L299.8,270.4z"/>
			</defs>
			<clipPath id="SVGID_19_">
				<use xlink:href="#SVGID_18_"  style="overflow:visible;"/>
			</clipPath>
			<g class="st26">
				<path class="st27" d="M364.6,374.9c-17.2,1.7-34.4,3.5-51.5,5.7c-51.4,6.5-97.7,12.8-142,20.2c-0.2,1.1-0.3,2.3-0.5,3.4
					c44.5-7.5,91.1-13.9,142.9-20.4c17.2-2.2,34.5-4,51.8-5.7C365.1,377,364.9,375.9,364.6,374.9z"/>
				<path class="st27" d="M271.3,404.1c-29.1,3.7-58.2,8.3-87,13.2c0.1,0,0.1,0,0.2,0c2.8,0.2,5.8,1,8.7,1.8
					c26.1-4.4,52.3-8.4,78.5-11.8c32.3-4.1,64.3-7.5,95.8-10.3c0.1-1.1,0.1-2.2,0.1-3.3C336,396.6,303.8,400,271.3,404.1z"/>
				<path class="st27" d="M178,354.6c62.5-5.8,124.2-10.4,178-14.2c-0.3-1.1-0.7-2.2-1.1-3.2c-53.4,3.8-114.5,8.3-176.4,14.1
					C178.4,352.3,178.2,353.4,178,354.6z"/>
				<path class="st27" d="M359.6,353.4c-39.4,3.2-78.6,6.7-117.1,10.1l-26.1,2.3c-13.5,1.2-27.1,2.8-40.8,4.6
					c-0.2,1.1-0.3,2.3-0.5,3.4c13.9-1.8,27.9-3.5,41.6-4.7l26.1-2.3c38.7-3.4,78.1-6.9,117.6-10.1
					C360.1,355.6,359.9,354.5,359.6,353.4z"/>
				<path class="st27" d="M327.8,288.2c-0.9-0.8-1.7-1.7-2.4-2.7c-1.9,0.2-3.9,0.5-5.8,0.7c-21.6,2.7-43.9,5.6-65.5,7.6l-9,0.8
					c-18.5,1.7-37.2,3.5-56,5.4c-0.2,1.1-0.5,2.3-0.8,3.4c19.1-2,38.2-3.8,57-5.6l9-0.8c21.6-2,44-4.9,65.6-7.6
					c2.7-0.3,5.4-0.7,8.1-1C328,288.4,327.9,288.3,327.8,288.2z"/>
				<path class="st27" d="M343.2,310c-4.5,0.4-8.9,0.8-13.5,1.2c-45.2,4-92.5,8.9-146.6,15.4c-0.2,1.1-0.5,2.3-0.7,3.4
					c54.6-6.5,102.2-11.5,147.6-15.5c4.9-0.4,9.8-0.9,14.7-1.3C344.3,312.1,343.8,311,343.2,310z"/>
				<path class="st27" d="M235.9,465c33.6-6.8,67.4-13.1,101.2-18.6c-1-0.9-1.8-1.9-2.5-2.9c-33.2,5.5-66.4,11.6-99.4,18.3
					C235.5,462.8,235.7,463.9,235.9,465z"/>
				<path class="st27" d="M229.4,440c0.3,1.1,0.7,2.1,1,3.2c33.7-6.6,68.2-11.1,102.6-14.7c0.3-1,0.7-2,1.2-2.9
					c0.1-0.2,0.3-0.4,0.4-0.6C299.4,428.6,264,433.2,229.4,440z"/>
			</g>
		</g>
		<path class="st7" d="M304.1,163.8c-1.4,0.7-7.1,4-4,5.4c2.4,1,6.2-0.4,6.9-2.9c0.4-1.4,0.1-3.2-1.8-2.9
			C304.9,163.4,304.5,163.6,304.1,163.8z"/>
		<g>
			<path class="st2" d="M233.7,478.6l-1.6-0.5c8.5-27.2,38.2-38.1,61.6-42.4c10.7-2,21.7-3.5,32.3-4.9c14-1.9,28.5-3.8,42.5-7
				c20.3-4.6,36.7-16,43.8-30.6c5-10.2,5-22.9,0.1-33.9c-5.7-12.8-17.9-19.6-28.9-25c-12.4-6.1-26-10.3-37.8-13.7
				c-7.8-2.3-15.3-5.1-22.6-7.8c-3.6-1.3-7.2-2.7-10.9-4c-24.4-8.6-54.1-30.1-57.4-62.3l1.6-0.2c3.2,31.5,32.4,52.5,56.3,60.9
				c3.7,1.3,7.3,2.6,10.9,4c7.2,2.7,14.7,5.5,22.5,7.7c11.8,3.5,25.5,7.7,38,13.8c11.2,5.6,23.7,12.6,29.7,25.8
				c5.2,11.5,5.1,24.7-0.1,35.3c-7.3,15-24.1,26.8-45,31.5c-14.1,3.2-28.6,5.1-42.7,7c-10.6,1.4-21.5,2.9-32.2,4.9
				C271.1,441.6,242,452.2,233.7,478.6z"/>
		</g>
		<path class="st1" d="M260.9,247.8c12.6-6.6,19.2-22,17.7-35.8c-0.8-7.6-4.2-15.3-10.4-19.7c-6-4.2-13.8-5.1-21-4
			c-10.6,1.5-20.9,7.2-26.6,16.2C204.7,229.5,235,261.4,260.9,247.8z"/>
		<path class="st2" d="M243.7,199.8c-4.7,1.6-9.3,3.8-12.9,7.2c-6.1,5.7-7.7,13.6-4.8,21.2c6.9,18.7,32.7,15.9,41.5,0.3
			c9.7-17.1-3.4-35.1-22.7-29.1C244.4,199.6,244.1,199.7,243.7,199.8z"/>
		<path class="st2" d="M238.7,192.9l-13.1,11.3c-13.5-16-16.8-35.5-10.4-58.6c4.7-4.6,10.1-6.1,16.4-4.1
			C227.3,159.6,230.2,176.6,238.7,192.9z"/>
		<g>
			<path class="st0" d="M247.9,248.7c-2.7,0-5.4-0.4-8-1.3c-8.8-2.9-15.6-10.5-18.2-20.4c-3.4-12.8,7.4-26.1,19.4-31l0,0
				c4.9-2,9.8-2.6,14.2-1.8c7,1.4,13.2,6.1,16.9,13c4.1,7.6,4.7,16.6,1.6,24C269.4,242,258.7,248.7,247.9,248.7z M241.5,197.2
				c-11.5,4.7-21.9,17.4-18.7,29.5c2.5,9.5,9,16.8,17.4,19.5c12.4,4.1,27.2-3,32.3-15.4c2.9-7.1,2.3-15.7-1.6-23
				c-3.6-6.7-9.3-11.1-16-12.4C250.9,194.7,246.2,195.3,241.5,197.2L241.5,197.2z"/>
		</g>
		<path class="st7" d="M347,382.5c-3.3,1.3-7.4,1.8-12,1.7c-9.5-0.2-21.4-3.2-34.2-8.2c-47.5-18.4-106.8-63.6-100-91.2
			c2.8-11.1,9.8-13.6,19.6-10.4c21.7,7.2,57.1,42.3,89.3,72.5l-2.2-5.4l-39.2-95.6l-34.4-12c4.4-4.5,15-1.5,23.2-2.1
			c-6.4-3.8-11.6-9.4-16.1-16.1l-2.9-30.4l-0.4-4.4c5.9,1.8,7.7,15.7,9.9,28l-5.8-33.8c4.9,3.7,7.7,17.3,10.8,30.2l-3.3-28.6
			c4.6,2.7,6.9,16.9,9.5,29.4l-1.8-26.6c6.2,2.7,6.3,16.5,10.1,30.2c13.3,7.6,22.1,16.7,21.1,29.2c31.5,42.8,56.2,86.6,58.6,133.9
			C347,376.1,347.1,379.3,347,382.5z"/>
		<defs>
			<filter id="Adobe_OpacityMaskFilter_8_" filterUnits="userSpaceOnUse" x="234" y="185.4" width="74.8" height="156.2">
				<feFlood  style="flood-color:white;flood-opacity:1" result="back"/>
				<feBlend  in="SourceGraphic" in2="back" mode="normal"/>
			</filter>
		</defs>
		<mask maskUnits="userSpaceOnUse" x="234" y="185.4" width="74.8" height="156.2" id="SVGID_20_">
			<g class="st28">
				<defs>
					<filter id="Adobe_OpacityMaskFilter_9_" filterUnits="userSpaceOnUse" x="234" y="185.4" width="74.8" height="156.2">
						<feFlood  style="flood-color:white;flood-opacity:1" result="back"/>
						<feBlend  in="SourceGraphic" in2="back" mode="normal"/>
					</filter>
				</defs>
				<mask maskUnits="userSpaceOnUse" x="234" y="185.4" width="74.8" height="156.2" id="SVGID_20_">
					<g class="st29">
					</g>
				</mask>
				<linearGradient id="SVGID_21_" gradientUnits="userSpaceOnUse" x1="233.9908" y1="263.4618" x2="308.7963" y2="263.4618">
					<stop  offset="0" style="stop-color:#808080"/>
					<stop  offset="1" style="stop-color:#FFFFFF"/>
				</linearGradient>
				<path class="st30" d="M307.5,341.6l-39.2-95.6l-34.4-12c4.4-4.5,15-1.5,23.2-2.1c-6.4-3.8-11.6-9.4-16.1-16.1l-2.9-30.4
					c0.8,3.4,1.8,6.9,3.2,10.2c1.9,4.8,3.6,9.3,6.3,13.3c1.1,1.7,2.3,3.2,3.8,4.7c4.9,5,10.9,9,16.1,13.9
					c14.6,13.8,24.4,31.6,30.9,50.4C305.2,297.7,311.6,320.6,307.5,341.6z"/>
			</g>
		</mask>
		<linearGradient id="SVGID_22_" gradientUnits="userSpaceOnUse" x1="233.9908" y1="263.4618" x2="308.7963" y2="263.4618">
			<stop  offset="0" style="stop-color:#FBC097"/>
			<stop  offset="1" style="stop-color:#FBC097"/>
		</linearGradient>
		<path class="st31" d="M307.5,341.6l-39.2-95.6l-34.4-12c4.4-4.5,15-1.5,23.2-2.1c-6.4-3.8-11.6-9.4-16.1-16.1l-2.9-30.4
			c0.8,3.4,1.8,6.9,3.2,10.2c1.9,4.8,3.6,9.3,6.3,13.3c1.1,1.7,2.3,3.2,3.8,4.7c4.9,5,10.9,9,16.1,13.9
			c14.6,13.8,24.4,31.6,30.9,50.4C305.2,297.7,311.6,320.6,307.5,341.6z"/>
		<defs>
			<filter id="Adobe_OpacityMaskFilter_10_" filterUnits="userSpaceOnUse" x="200.3" y="273.2" width="100.5" height="102.9">
				<feFlood  style="flood-color:white;flood-opacity:1" result="back"/>
				<feBlend  in="SourceGraphic" in2="back" mode="normal"/>
			</filter>
		</defs>
		<mask maskUnits="userSpaceOnUse" x="200.3" y="273.2" width="100.5" height="102.9" id="SVGID_23_">
			<g class="st32">
				<defs>
					<filter id="Adobe_OpacityMaskFilter_11_" filterUnits="userSpaceOnUse" x="200.3" y="273.2" width="100.5" height="102.9">
						<feFlood  style="flood-color:white;flood-opacity:1" result="back"/>
						<feBlend  in="SourceGraphic" in2="back" mode="normal"/>
					</filter>
				</defs>
				<mask maskUnits="userSpaceOnUse" x="200.3" y="273.2" width="100.5" height="102.9" id="SVGID_23_">
					<g class="st33">
					</g>
				</mask>
				<linearGradient id="SVGID_24_" gradientUnits="userSpaceOnUse" x1="200.3274" y1="324.6215" x2="300.8253" y2="324.6215">
					<stop  offset="0" style="stop-color:#808080"/>
					<stop  offset="1" style="stop-color:#FFFFFF"/>
				</linearGradient>
				<path class="st34" d="M300.8,376.1c-47.5-18.4-106.8-63.6-100-91.2c2.8-11.1,9.8-13.6,19.6-10.4c1.4,2.9,2.8,5.8,4.3,8.7
					C242.7,319.6,270.5,349.3,300.8,376.1z"/>
			</g>
		</mask>
		<linearGradient id="SVGID_25_" gradientUnits="userSpaceOnUse" x1="200.3274" y1="324.6215" x2="300.8253" y2="324.6215">
			<stop  offset="0" style="stop-color:#FBC097"/>
			<stop  offset="1" style="stop-color:#FBC097"/>
		</linearGradient>
		<path class="st35" d="M300.8,376.1c-47.5-18.4-106.8-63.6-100-91.2c2.8-11.1,9.8-13.6,19.6-10.4c1.4,2.9,2.8,5.8,4.3,8.7
			C242.7,319.6,270.5,349.3,300.8,376.1z"/>
		<g>
			<path class="st25" d="M279.2,281.5l-0.2-5c11.8-0.4,22.6-8.3,28.8-15.7l3.8,3.2C304.7,272.3,292.6,281.1,279.2,281.5z"/>
		</g>
		<g>
			<path class="st1" d="M277.6,272.6l-1-3.2c10.2-3.3,19.1-9.1,27.3-14.7l1.9,2.7C297.3,263.2,288.2,269.1,277.6,272.6z"/>
		</g>
		<polygon class="st2" points="254.3,250.3 258.8,248.5 259.8,256.5 256.3,257.8 		"/>
	</g>
</g>
</svg>
